<?xml version="1.0" standalone="no"?>
<!DOCTYPE svg PUBLIC "-//W3C//DTD SVG 20010904//EN"
 "http://www.w3.org/TR/2001/REC-SVG-20010904/DTD/svg10.dtd">
<svg version="1.0" xmlns="http://www.w3.org/2000/svg"
 width="1024.000000pt" height="1024.000000pt" viewBox="0 0 1024.000000 1024.000000"
 preserveAspectRatio="xMidYMid meet">

<g transform="translate(0.000000,1024.000000) scale(0.100000,-0.100000)"
fill="#000000" stroke="none">
<path d="M5725 9290 c-136 -29 -255 -94 -349 -189 -79 -80 -128 -160 -163
-266 -23 -70 -27 -97 -27 -210 0 -116 3 -139 28 -215 49 -147 80 -202 418
-755 166 -271 228 -368 233 -364 11 12 455 747 504 837 108 194 154 336 153
482 0 312 -196 576 -492 662 -74 21 -244 32 -305 18z m270 -350 c64 -31 124
-92 155 -155 19 -39 26 -70 28 -137 4 -77 1 -93 -24 -147 -37 -84 -120 -161
-199 -186 -74 -23 -183 -16 -244 15 -252 128 -244 488 13 612 55 26 69 29 141
26 59 -3 93 -10 130 -28z"/>
<path d="M7886 8839 c-14 -17 -26 -35 -26 -40 0 -5 -15 -26 -33 -46 -18 -21
-44 -56 -57 -78 -36 -59 -44 -65 -94 -65 -32 0 -52 -6 -65 -19 -33 -33 -57
-41 -126 -41 -55 0 -72 4 -98 24 -40 30 -97 50 -206 70 -76 15 -87 15 -107 1
-26 -16 -32 -36 -36 -104 -5 -70 -25 -74 -89 -18 -42 37 -61 47 -89 47 -44 0
-57 -10 -99 -74 -49 -74 -50 -101 -7 -161 38 -55 86 -146 86 -167 1 -19 26
-49 52 -62 58 -29 44 -138 -27 -218 -31 -35 -45 -61 -54 -105 -14 -59 -48
-135 -84 -187 -20 -28 -20 -31 -4 -76 9 -26 17 -53 17 -59 0 -14 -39 -30 -82
-33 -18 -2 -42 -14 -59 -30 -49 -50 -98 -37 -187 49 -19 18 -53 37 -75 43 -23
6 -54 17 -69 25 -37 21 -111 19 -130 -2 -35 -40 -48 -82 -48 -156 0 -78 -6
-91 -82 -179 -31 -37 -135 -55 -180 -32 -35 18 -153 95 -190 123 -31 25 -41
26 -58 6 -25 -30 -96 -11 -182 47 -29 20 -71 41 -93 48 -22 7 -44 16 -49 21
-6 5 -23 9 -38 9 -23 0 -28 -4 -28 -23 0 -13 5 -28 11 -34 7 -7 21 -36 33 -65
17 -42 31 -59 70 -85 58 -38 95 -80 96 -108 1 -37 54 -99 114 -132 32 -18 64
-33 72 -33 7 0 30 -16 51 -35 40 -37 43 -39 139 -55 34 -6 76 -18 94 -27 35
-17 91 -33 128 -37 12 -1 28 -8 34 -14 7 -7 32 -12 56 -12 63 0 114 -52 132
-133 l14 -58 -44 -38 c-47 -41 -44 -29 -39 -159 1 -28 -4 -49 -16 -62 -26 -29
-105 -52 -151 -44 -38 6 -41 4 -82 -44 -33 -40 -50 -52 -82 -57 -50 -8 -81
-33 -95 -76 -10 -27 -21 -37 -59 -51 -70 -27 -93 -45 -126 -103 -31 -54 -39
-123 -21 -170 5 -13 1 -33 -12 -58 -11 -21 -23 -66 -26 -100 -5 -43 -15 -74
-34 -101 -33 -48 -34 -66 -3 -95 16 -15 25 -38 29 -73 9 -75 29 -91 116 -93
54 -2 76 -7 97 -24 15 -11 37 -21 50 -21 28 0 27 -2 14 36 -15 42 -60 64 -130
64 -32 0 -61 4 -65 9 -3 6 -7 31 -9 56 -2 29 -11 54 -25 69 -26 28 -26 37 -1
78 11 18 22 53 25 78 10 75 14 87 40 119 l26 30 -21 33 c-26 42 -25 81 1 135
16 33 31 47 66 63 25 11 50 20 55 20 24 0 68 43 68 65 0 27 31 47 87 60 18 3
42 18 53 33 32 40 57 53 112 58 56 6 132 40 163 74 17 19 20 36 20 112 0 79 2
92 19 102 11 6 30 21 43 33 21 20 22 28 16 85 -5 55 -12 70 -53 123 -50 65
-65 72 -195 100 -44 10 -112 28 -152 41 -39 13 -80 24 -90 24 -37 0 -95 22
-126 48 -43 36 -91 62 -115 62 -29 0 -102 76 -102 106 0 30 -41 84 -79 103
-41 21 -115 97 -107 110 8 12 53 2 67 -15 6 -8 16 -14 22 -14 6 0 21 -10 34
-22 23 -22 113 -58 145 -58 10 0 27 5 37 12 15 9 22 8 37 -7 10 -10 41 -28 69
-40 28 -13 56 -30 63 -38 7 -8 36 -25 63 -37 41 -17 61 -20 103 -15 28 4 61
12 72 19 31 16 93 75 133 126 32 40 34 47 35 125 1 66 5 87 20 104 30 33 52
35 88 8 18 -13 48 -27 66 -30 22 -5 49 -24 85 -64 52 -55 55 -57 114 -61 58
-4 61 -3 94 32 29 31 43 37 89 42 85 10 100 23 100 90 0 30 -4 53 -9 50 -5 -3
-14 1 -21 9 -11 13 -8 23 19 60 22 30 38 72 53 137 20 85 25 96 65 132 45 41
60 77 64 156 1 25 8 55 16 67 26 44 17 59 -42 73 -59 14 -60 15 -70 98 -6 45
-11 55 -36 67 -30 16 -59 61 -59 93 0 20 65 112 80 112 4 0 28 -20 53 -44 54
-52 86 -62 127 -41 39 20 50 43 50 105 0 59 11 68 68 52 20 -6 64 -18 97 -27
33 -9 69 -25 80 -35 42 -37 65 -43 154 -36 78 7 89 10 119 39 31 30 34 31 74
20 41 -11 43 -11 75 25 18 20 33 39 33 44 0 4 22 33 50 63 27 30 61 73 75 95
30 47 45 50 79 14 18 -20 36 -27 71 -30 25 -2 50 -6 54 -8 5 -3 11 -27 14 -53
9 -71 39 -154 72 -195 25 -31 29 -46 31 -107 2 -90 20 -165 45 -187 10 -9 19
-24 19 -33 0 -9 7 -29 15 -44 8 -15 19 -64 25 -108 12 -86 15 -97 35 -144 7
-16 21 -49 31 -73 9 -23 28 -55 42 -69 34 -37 49 -88 57 -185 3 -45 11 -104
17 -129 8 -34 8 -55 0 -78 -10 -28 -8 -39 9 -72 22 -44 18 -106 -7 -116 -20
-8 -17 -37 11 -94 l24 -51 -24 -49 c-29 -57 -31 -81 -8 -100 26 -22 91 -127
98 -159 9 -41 73 -69 140 -63 39 4 62 0 97 -17 65 -30 73 -41 57 -85 -15 -39
-7 -61 27 -79 10 -6 21 -12 23 -13 12 -8 30 -196 24 -253 -4 -36 -6 -68 -5
-72 1 -4 4 -32 6 -63 3 -31 10 -63 17 -71 15 -18 6 -86 -15 -119 -11 -16 -29
-26 -59 -30 l-43 -7 8 -71 c8 -82 3 -113 -24 -143 -13 -15 -19 -39 -21 -84 -2
-54 -6 -65 -30 -86 -27 -23 -39 -26 -141 -28 -46 -1 -50 -3 -71 -41 -16 -28
-31 -41 -48 -43 -36 -4 -84 43 -93 90 -6 34 -4 37 21 40 l28 3 -28 28 c-20 19
-38 27 -63 27 -44 0 -61 22 -62 77 0 85 -12 89 -109 38 -56 -30 -72 -34 -93
-26 -33 12 -53 -8 -97 -101 -22 -47 -38 -68 -51 -68 -31 0 -43 -25 -20 -45 34
-31 26 -76 -19 -113 -22 -18 -45 -32 -50 -32 -6 0 -31 -41 -56 -90 -25 -50
-52 -93 -60 -97 -8 -3 -15 -13 -15 -22 0 -19 -49 -71 -67 -71 -13 0 -23 -33
-23 -78 0 -27 10 -43 58 -90 141 -137 177 -143 356 -56 38 18 50 6 42 -40 -7
-36 -55 -86 -82 -86 -8 0 -14 -3 -14 -7 0 -5 -15 -24 -32 -43 -28 -30 -37 -34
-77 -32 -41 2 -52 -3 -101 -43 -77 -64 -99 -115 -67 -159 12 -16 15 -14 31 22
30 67 75 102 139 111 47 6 64 15 105 52 28 24 68 56 90 71 29 19 44 38 51 65
15 53 13 104 -5 128 -19 26 -89 23 -146 -6 -26 -13 -62 -22 -94 -23 -47 0 -54
3 -111 53 -36 32 -63 64 -66 79 -5 28 18 69 42 74 15 3 39 43 105 173 27 51
46 76 75 94 47 28 85 92 77 126 -8 30 6 67 47 127 26 38 43 51 88 67 71 27 79
26 79 -3 0 -25 45 -71 85 -86 15 -6 26 -26 38 -69 15 -55 22 -65 64 -91 68
-44 104 -40 156 13 40 42 45 44 115 50 110 9 149 46 157 148 3 40 11 69 22 82
14 15 18 36 17 101 -1 81 -1 81 30 96 16 8 43 32 60 53 35 44 37 72 17 202 -7
44 -12 94 -10 110 1 17 2 53 1 80 -3 175 -11 215 -49 251 -21 20 -27 35 -29
82 -3 48 -8 60 -31 77 -48 36 -106 54 -175 54 l-67 1 -27 48 c-15 26 -43 71
-62 100 -36 52 -36 52 -19 88 21 44 22 87 0 145 -15 44 -15 49 2 85 17 36 17
42 2 83 -9 24 -12 52 -8 63 9 25 -24 321 -40 362 -7 17 -23 45 -36 62 -13 17
-23 34 -23 38 0 4 -18 44 -40 87 -22 44 -40 93 -40 110 0 48 -39 189 -65 233
-32 56 -46 114 -46 195 0 60 -4 75 -32 118 -46 71 -64 114 -72 174 -4 30 -11
62 -16 71 -13 24 -62 48 -97 48 -17 0 -50 11 -73 25 -61 35 -101 33 -133 -6z
m167 -3406 c-7 -2 -19 -2 -25 0 -7 3 -2 5 12 5 14 0 19 -2 13 -5z"/>
<path d="M4450 8700 c-387 -47 -665 -118 -960 -245 -480 -206 -937 -564 -1246
-975 -138 -183 -183 -256 -284 -455 -247 -487 -342 -911 -327 -1470 9 -329 54
-587 154 -883 183 -543 517 -1023 979 -1406 298 -248 624 -435 977 -560 581
-207 1200 -260 1750 -151 48 10 87 22 87 27 0 20 -209 260 -220 253 -7 -5
-201 -21 -371 -31 -183 -11 -483 23 -723 82 -204 50 -293 78 -456 146 -636
262 -1136 693 -1479 1274 -189 322 -301 642 -363 1034 -21 133 -18 566 5 710
76 480 265 910 569 1292 375 471 925 833 1478 973 273 69 473 91 740 81 102
-4 212 -11 245 -15 33 -5 61 -7 62 -7 1 1 -2 31 -8 67 -6 35 -11 105 -11 155
l-1 92 -41 6 c-72 11 -478 15 -556 6z"/>
<path d="M7901 8574 c0 -11 3 -14 6 -6 3 7 2 16 -1 19 -3 4 -6 -2 -5 -13z"/>
<path d="M7882 8523 c-10 -26 -25 -72 -27 -83 -1 -3 -11 -21 -23 -40 -12 -19
-22 -39 -23 -45 0 -5 -2 -23 -4 -39 -2 -15 -1 -25 2 -22 6 6 31 69 36 91 2 6
6 15 10 21 10 17 47 137 43 141 -2 2 -8 -9 -14 -24z"/>
<path d="M7816 8205 c7 -19 14 -46 14 -60 0 -14 5 -25 10 -25 6 0 10 8 10 17
0 23 -33 103 -42 103 -4 0 0 -16 8 -35z"/>
<path d="M4455 8203 c-320 -40 -556 -106 -812 -228 -291 -139 -513 -295 -744
-525 -364 -362 -629 -859 -715 -1340 -60 -337 -57 -621 11 -954 27 -137 74
-296 87 -296 4 0 16 9 25 20 10 11 23 20 30 20 6 0 13 10 15 23 2 18 8 21 31
19 18 -2 26 1 22 7 -3 6 -15 11 -26 11 -21 0 -26 26 -7 32 10 4 10 10 2 29
-12 26 -7 89 7 89 5 0 9 6 9 13 0 8 11 19 25 25 14 6 25 17 25 23 0 17 60 3
75 -18 15 -20 39 -7 32 18 -3 11 -2 19 1 19 4 0 12 12 19 26 10 21 10 29 -2
41 -17 16 -21 58 -5 48 6 -3 10 -1 10 4 0 6 9 11 21 11 15 0 19 5 15 15 -3 10
1 15 12 15 10 0 24 6 30 12 20 20 31 -9 20 -51 -14 -49 -5 -159 17 -201 37
-74 154 -160 215 -159 19 0 16 3 -15 13 -49 15 -88 36 -82 43 3 2 19 -3 36
-11 54 -29 57 -17 3 14 -84 49 -143 147 -142 237 0 15 11 59 24 98 14 39 18
61 10 50 -25 -34 -17 10 12 61 14 25 21 43 15 40 -15 -10 -52 -82 -57 -113 -3
-17 -1 -22 7 -17 8 4 9 3 5 -4 -13 -21 -35 -13 -42 16 -3 15 -7 32 -9 39 -6
18 54 95 67 87 7 -4 8 -3 4 4 -13 21 89 90 152 102 70 14 83 18 57 19 -12 1
-47 -6 -78 -14 -68 -18 -80 -18 -72 -5 3 6 1 10 -5 10 -6 0 -13 -7 -16 -15 -4
-8 -16 -15 -28 -15 -35 1 -104 37 -111 59 -7 24 0 41 18 41 7 0 18 4 26 9 12
8 12 12 2 25 -8 9 -14 50 -16 99 -2 62 -8 94 -25 127 l-22 44 22 18 c17 13 26
15 35 8 20 -17 31 27 12 48 -7 9 -17 25 -20 35 -4 9 -13 17 -20 17 -11 0 -12
10 -6 48 11 67 11 79 -4 94 -7 7 -18 25 -24 41 -7 15 -19 27 -28 27 -14 0 -20
16 -17 52 1 9 -7 20 -18 23 -24 8 -28 63 -5 71 8 4 15 12 15 19 0 6 8 20 19
29 17 16 19 16 24 -5 5 -19 8 -20 21 -9 9 7 16 25 16 40 0 30 24 58 35 40 16
-26 22 -6 8 27 -12 29 -13 41 -3 56 9 15 8 23 -5 37 -11 12 -14 26 -10 39 7
23 20 27 30 11 4 -6 24 -18 46 -27 36 -14 55 -41 48 -69 -5 -20 14 -63 37 -85
27 -26 28 -23 13 55 -9 41 -9 60 -1 68 8 8 5 19 -11 40 -26 36 -16 57 34 72
44 14 72 34 89 65 7 14 21 34 31 45 11 11 19 23 19 28 0 15 59 38 97 38 50 0
68 12 55 36 -22 43 -30 83 -18 87 6 3 20 34 30 71 11 36 23 66 28 66 5 0 6 9
3 21 -5 15 -3 19 9 17 10 -2 25 16 43 54 31 61 92 118 127 118 33 -1 69 -36
63 -61 -3 -12 -3 -27 0 -34 9 -26 30 -4 59 65 28 67 46 83 69 61 6 -5 42 -12
81 -16 67 -6 72 -5 105 22 19 15 40 35 47 45 7 9 25 23 40 31 15 7 44 23 65
35 21 12 44 22 51 22 9 0 12 8 9 24 -7 33 32 71 86 86 29 7 41 16 41 29 0 10
2 20 5 23 10 10 108 -11 125 -27 19 -17 33 -77 23 -101 -6 -16 -78 -50 -141
-66 -50 -12 -65 -32 -82 -105 -12 -51 -13 -53 -46 -53 -29 0 -36 -5 -52 -37
-11 -21 -33 -65 -49 -98 -23 -44 -33 -81 -38 -140 -8 -92 -33 -152 -76 -184
-34 -25 -29 -45 9 -37 15 3 45 0 67 -8 36 -12 41 -19 49 -58 5 -23 29 -76 53
-116 46 -80 50 -97 28 -126 -8 -11 -15 -33 -15 -49 0 -15 -5 -37 -10 -47 -16
-31 8 -62 42 -55 24 6 29 2 50 -42 24 -50 34 -54 86 -38 16 6 22 3 22 -9 0
-29 128 -25 149 5 15 21 41 26 41 7 0 -10 2 -10 9 0 6 10 16 8 47 -10 21 -13
50 -23 64 -23 21 0 32 -13 67 -79 50 -93 64 -109 108 -130 29 -14 37 -14 69
-1 28 12 40 13 55 4 24 -16 203 4 237 25 32 22 45 20 77 -9 32 -31 33 -39 7
-101 -13 -30 -19 -58 -15 -75 5 -23 1 -31 -24 -50 -30 -22 -56 -73 -45 -90 2
-5 6 -37 8 -71 9 -161 31 -225 95 -280 23 -19 41 -39 41 -43 0 -5 -28 -39 -61
-77 -69 -77 -70 -69 13 -123 38 -25 60 -66 39 -73 -8 -3 -3 -16 14 -37 16 -22
25 -46 25 -72 0 -21 7 -60 16 -88 9 -27 19 -66 23 -86 8 -35 8 -35 -36 -45
-31 -8 -46 -7 -51 0 -11 18 -10 150 2 158 12 8 -40 57 -61 58 -7 0 -28 -13
-46 -30 -48 -42 -87 -38 -141 11 -26 25 -32 17 -10 -16 16 -24 16 -27 1 -42
-9 -9 -29 -18 -44 -20 -39 -4 -251 -3 -291 2 -29 4 -31 2 -22 -15 5 -10 10
-34 10 -52 0 -25 8 -42 29 -62 26 -24 34 -27 69 -21 35 6 40 4 46 -17 10 -40
7 -78 -8 -78 -7 0 -27 5 -44 11 -27 9 -35 8 -58 -10 -15 -12 -44 -24 -64 -27
l-38 -6 2 -89 1 -89 49 -44 c40 -35 48 -48 43 -67 -5 -17 1 -31 20 -51 22 -23
26 -35 25 -87 0 -33 -10 -91 -21 -128 -25 -86 -93 -374 -134 -568 -6 -27 -12
-52 -14 -54 -2 -3 -17 11 -33 31 -30 36 -54 49 -127 68 -24 6 -43 15 -43 21 0
5 40 71 90 146 81 124 88 138 72 149 -9 8 -27 14 -40 14 -28 0 -98 43 -112 70
-6 10 -28 25 -50 31 -35 11 -45 10 -75 -7 -32 -17 -38 -17 -92 -3 -57 15 -123
10 -123 -10 0 -10 -119 -71 -138 -71 -6 0 -12 4 -12 9 0 15 -40 24 -54 12 -34
-29 -112 22 -85 55 6 8 10 16 8 17 -26 18 -118 97 -132 112 -16 18 -16 18 -11
1 6 -17 5 -17 -16 -5 -12 8 -31 19 -41 25 -10 6 -16 14 -12 17 3 4 1 7 -6 7
-20 0 -41 27 -41 53 0 14 -7 30 -15 37 -8 7 -15 20 -15 29 0 18 -52 72 -87 90
-12 6 -37 11 -56 11 -19 0 -49 10 -68 23 -95 63 -161 98 -169 88 -16 -21 -73
-52 -87 -47 -10 3 -54 8 -98 11 -61 5 -84 10 -95 24 -24 30 -54 85 -52 96 1 6
-4 2 -11 -7 -19 -24 -56 -22 -87 2 -21 17 -23 21 -10 29 21 14 8 21 -49 26
-52 5 -86 27 -93 61 -3 17 -38 30 -38 14 0 -21 78 -185 139 -293 353 -625 935
-1113 1581 -1325 351 -115 652 -160 1000 -149 196 6 387 30 408 51 9 9 10 19
1 44 -6 18 -8 56 -5 84 7 69 7 63 0 138 -3 36 -10 75 -16 87 -18 36 -2 100 40
166 35 55 40 70 44 137 6 91 23 128 94 197 47 45 54 56 54 91 0 26 -6 45 -20
57 -23 21 -44 80 -36 101 3 9 -10 62 -29 118 -20 60 -35 122 -35 150 0 48 20
108 45 136 10 11 11 26 5 60 -21 105 17 180 117 235 1 0 5 16 8 34 8 46 20 66
55 91 32 23 33 29 8 93 -9 23 -16 27 -48 27 -23 0 -51 9 -74 25 -23 15 -51 25
-74 25 -88 0 -162 49 -162 107 0 14 -14 54 -31 88 -36 70 -35 104 3 165 33 51
50 131 54 251 3 96 7 113 36 175 26 53 43 75 82 101 26 18 58 33 71 33 17 0
29 12 46 47 26 51 77 93 115 93 14 0 43 20 77 55 l54 55 66 0 c97 0 96 -1 90
85 -5 64 -3 78 16 109 12 20 33 44 46 54 l24 19 -23 34 c-21 30 -35 37 -122
62 -55 15 -111 27 -125 27 -15 0 -38 9 -52 20 -14 11 -59 26 -100 34 -79 15
-125 34 -146 60 -7 9 -45 32 -85 52 -39 20 -82 46 -95 58 -40 36 -81 98 -81
122 0 15 -13 33 -36 51 -89 68 -114 95 -124 137 -5 22 -19 58 -30 78 -11 20
-20 44 -20 53 0 29 39 93 61 100 23 8 88 -2 104 -15 6 -5 34 -18 62 -29 29
-11 71 -34 94 -51 35 -25 51 -30 101 -30 34 0 58 4 58 11 0 5 5 7 10 4 32 -20
4 36 -167 335 -234 408 -266 461 -286 472 -50 26 -559 49 -702 31z m90 -3233
c-3 -5 -11 -10 -16 -10 -6 0 -7 5 -4 10 3 6 11 10 16 10 6 0 7 -4 4 -10z"/>
<path d="M7820 8019 c0 -5 5 -7 10 -4 6 3 10 8 10 11 0 2 -4 4 -10 4 -5 0 -10
-5 -10 -11z"/>
<path d="M7435 8010 c-3 -5 -1 -10 4 -10 6 0 11 5 11 10 0 6 -2 10 -4 10 -3 0
-8 -4 -11 -10z"/>
<path d="M7810 7966 c0 -24 16 -43 27 -32 3 3 2 13 -2 23 -5 10 -7 21 -7 26 1
4 -2 7 -8 7 -5 0 -10 -11 -10 -24z"/>
<path d="M7455 7930 c-3 -5 -1 -10 4 -10 6 0 11 5 11 10 0 6 -2 10 -4 10 -3 0
-8 -4 -11 -10z"/>
<path d="M7828 7885 c2 -19 6 -35 8 -35 2 0 4 16 4 35 0 19 -4 35 -8 35 -4 0
-6 -16 -4 -35z"/>
<path d="M7395 7840 c3 -5 14 -10 23 -10 15 0 15 2 2 10 -20 13 -33 13 -25 0z"/>
<path d="M7816 7818 c-10 -35 -14 -229 -6 -258 4 -14 8 31 8 105 1 72 4 140 8
153 3 12 4 22 1 22 -2 0 -8 -10 -11 -22z"/>
<path d="M7793 7700 c0 -25 2 -35 4 -22 2 12 2 32 0 45 -2 12 -4 2 -4 -23z"/>
<path d="M7795 7535 c4 -29 3 -36 -4 -25 -13 18 -14 1 -2 -19 14 -22 22 19 11
54 -9 28 -9 27 -5 -10z"/>
<path d="M7770 7485 c0 -5 5 -17 10 -25 5 -8 10 -10 10 -5 0 6 -5 17 -10 25
-5 8 -10 11 -10 5z"/>
<path d="M7753 7419 c-4 -12 -17 -43 -31 -68 -13 -25 -26 -54 -28 -65 -4 -20
-48 -84 -72 -103 -9 -7 -13 -16 -10 -19 4 -3 32 28 62 69 38 52 54 81 49 93
-5 13 -3 15 8 9 8 -4 11 -5 7 0 -4 4 -1 14 7 21 8 8 11 22 8 31 -4 10 -2 14 4
10 5 -4 15 5 21 18 10 21 9 25 -4 25 -9 0 -18 -10 -21 -21z m-42 -122 c-10 -9
-11 -8 -5 6 3 10 9 15 12 12 3 -3 0 -11 -7 -18z"/>
<path d="M3195 7230 c-3 -5 -1 -10 4 -10 6 0 11 5 11 10 0 6 -2 10 -4 10 -3 0
-8 -4 -11 -10z"/>
<path d="M7505 7100 c-10 -11 -15 -20 -10 -20 4 0 1 -8 -6 -17 -8 -10 5 -3 29
16 23 18 42 35 42 38 0 4 -8 -1 -18 -10 -23 -21 -39 -22 -22 -2 19 22 6 18
-15 -5z"/>
<path d="M7440 7045 c-19 -23 -79 -61 -163 -102 -43 -21 -65 -38 -61 -45 5 -7
2 -9 -8 -5 -9 3 -24 0 -34 -8 -17 -12 -16 -12 7 -10 37 4 91 34 83 46 -3 6 0
9 7 7 17 -3 124 54 163 87 15 13 26 29 24 36 -2 7 -9 5 -18 -6z m-190 -135
c-8 -5 -19 -10 -25 -10 -5 0 -3 5 5 10 8 5 20 10 25 10 6 0 3 -5 -5 -10z"/>
<path d="M7042 6795 c-16 -19 -3 -19 22 0 14 11 16 15 5 15 -8 -1 -20 -7 -27
-15z"/>
<path d="M8488 6773 c6 -2 18 -2 25 0 6 3 1 5 -13 5 -14 0 -19 -2 -12 -5z"/>
<path d="M6978 6740 c-12 -16 -27 -30 -34 -30 -11 0 -84 -74 -84 -85 0 -2 7
-2 15 2 9 3 13 8 10 11 -8 8 36 52 52 52 7 0 23 9 35 19 31 26 66 58 54 49
-14 -11 -28 -10 -21 2 14 23 -6 8 -27 -20z"/>
<path d="M6836 6570 c-18 -44 -20 -60 -8 -60 9 0 41 100 31 100 -4 0 -14 -18
-23 -40z"/>
<path d="M6801 6448 c-16 -84 -17 -207 -1 -138 11 45 23 190 17 190 -3 0 -10
-24 -16 -52z"/>
<path d="M6790 6166 c0 -8 5 -18 10 -21 6 -3 10 3 10 14 0 12 -4 21 -10 21 -5
0 -10 -6 -10 -14z"/>
<path d="M6801 6114 c0 -11 3 -14 6 -6 3 7 2 16 -1 19 -3 4 -6 -2 -5 -13z"/>
<path d="M8426 5995 c-9 -14 -21 -23 -26 -20 -14 9 -52 -14 -44 -26 3 -6 0
-10 -7 -8 -29 3 -39 -2 -39 -18 0 -15 2 -16 10 -3 5 8 10 11 10 7 0 -4 9 -3
20 3 11 6 18 16 14 22 -4 6 1 8 13 4 22 -7 93 46 76 57 -6 4 -18 -5 -27 -18z"/>
<path d="M6978 5943 c12 -2 32 -2 45 0 12 2 2 4 -23 4 -25 0 -35 -2 -22 -4z"/>
<path d="M7072 5930 c14 -4 32 -11 40 -15 7 -3 4 1 -6 9 -11 9 -29 16 -40 15
-17 -1 -16 -2 6 -9z"/>
<path d="M6871 5899 c-92 -66 -120 -217 -57 -307 32 -46 99 -97 118 -89 8 4 7
6 -4 6 -26 1 -96 68 -119 112 -49 97 -6 226 96 290 17 11 25 19 19 19 -6 0
-30 -14 -53 -31z"/>
<path d="M7161 5875 c39 -42 57 -72 70 -114 5 -17 8 -20 8 -8 2 29 -34 89 -76
127 l-38 35 36 -40z"/>
<path d="M6930 5848 c-72 -50 -90 -142 -43 -216 45 -70 128 -92 203 -54 38 19
80 88 80 132 0 40 -42 113 -79 137 -46 31 -116 31 -161 1z"/>
<path d="M8129 5827 c-33 -20 -59 -42 -59 -47 0 -5 -6 -7 -14 -4 -17 6 -31
-12 -16 -21 5 -3 10 -1 10 5 0 6 4 9 9 5 6 -3 15 4 21 15 7 13 18 19 26 16 8
-3 17 1 20 9 4 8 9 13 13 10 4 -2 18 6 32 19 13 12 27 23 32 23 22 4 29 11 8
10 -13 -1 -50 -19 -82 -40z"/>
<path d="M8004 5734 c-18 -14 -18 -15 4 -4 12 6 22 13 22 15 0 8 -5 6 -26 -11z"/>
<path d="M7941 5704 c-20 -23 -9 -25 19 -4 16 13 20 20 10 19 -8 0 -21 -7 -29
-15z"/>
<path d="M7232 5670 c0 -14 2 -19 5 -12 2 6 2 18 0 25 -3 6 -5 1 -5 -13z"/>
<path d="M7882 5659 c-13 -5 -20 -13 -17 -19 6 -10 -9 -15 -30 -10 -5 1 -7 -2
-3 -6 4 -4 2 -14 -4 -23 -12 -15 -11 -15 7 0 91 71 97 78 47 58z"/>
<path d="M7221 5629 c-1 -9 -8 -22 -16 -29 -8 -7 -15 -17 -15 -23 0 -5 9 2 21
17 11 14 18 32 16 39 -4 7 -6 6 -6 -4z"/>
<path d="M7799 5603 c-13 -16 -12 -17 4 -4 16 13 21 21 13 21 -2 0 -10 -8 -17
-17z"/>
<path d="M7144 5534 c-18 -14 -18 -15 4 -4 12 6 22 13 22 15 0 8 -5 6 -26 -11z"/>
<path d="M7740 5535 c-10 -12 -9 -15 4 -15 10 0 15 4 12 9 -4 5 0 12 6 14 8 4
9 6 2 6 -6 1 -17 -6 -24 -14z"/>
<path d="M3090 5528 c9 -8 90 -48 90 -44 0 7 -45 33 -70 41 -14 4 -23 5 -20 3z"/>
<path d="M2863 5510 c-35 -14 -27 -19 15 -10 73 16 77 18 42 18 -19 0 -45 -3
-57 -8z"/>
<path d="M3069 5500 c24 -11 46 -19 48 -16 5 5 -62 36 -79 36 -7 0 7 -9 31
-20z"/>
<path d="M7100 5510 c-9 -6 -10 -10 -3 -10 6 0 15 5 18 10 8 12 4 12 -15 0z"/>
<path d="M7692 5490 c-12 -16 -22 -41 -22 -55 0 -14 -4 -24 -9 -20 -5 3 -13 0
-17 -6 -4 -8 -3 -9 4 -5 15 9 15 1 1 -25 -5 -11 -14 -17 -18 -14 -5 2 -15 -3
-22 -12 -12 -15 -12 -16 1 -8 8 6 19 10 24 10 15 0 49 63 49 90 0 13 4 23 9
22 13 -3 41 40 30 47 -5 3 -19 -8 -30 -24z"/>
<path d="M6965 5490 c11 -5 29 -8 40 -8 16 0 15 2 -5 8 -34 11 -60 11 -35 0z"/>
<path d="M7048 5493 c6 -2 18 -2 25 0 6 3 1 5 -13 5 -14 0 -19 -2 -12 -5z"/>
<path d="M6670 5464 c0 -8 5 -12 10 -9 6 4 8 11 5 16 -9 14 -15 11 -15 -7z"/>
<path d="M3205 5440 c10 -11 20 -20 23 -20 3 0 -3 9 -13 20 -10 11 -20 20 -23
20 -3 0 3 -9 13 -20z"/>
<path d="M2898 5428 c-47 -12 -93 -64 -109 -120 -41 -154 105 -281 257 -223
79 30 128 127 109 215 -9 40 -70 109 -112 127 -37 15 -91 15 -145 1z m153 -61
c67 -45 77 -148 18 -206 -73 -74 -200 -35 -218 66 -10 55 4 96 44 132 45 39
105 43 156 8z m76 -159 c-3 -7 -5 -2 -5 12 0 14 2 19 5 13 2 -7 2 -19 0 -25z"/>
<path d="M5776 5372 c-28 -6 -16 -79 23 -137 22 -33 35 -69 45 -123 7 -43 19
-88 27 -100 15 -25 10 -31 -65 -87 -19 -14 -28 -32 -32 -60 -5 -45 -16 -58
-65 -83 -27 -14 -38 -28 -52 -72 -16 -46 -17 -60 -7 -85 18 -44 15 -61 -19
-112 -34 -52 -39 -94 -17 -148 18 -41 57 -182 54 -193 -7 -24 14 -70 37 -82
44 -24 47 -41 20 -115 -19 -53 -36 -79 -78 -119 -63 -59 -82 -105 -74 -176 6
-52 -3 -76 -61 -151 -29 -38 -33 -49 -28 -84 3 -22 10 -67 15 -101 5 -33 16
-72 25 -87 15 -21 15 -30 5 -49 -7 -13 -19 -28 -27 -34 -12 -9 -12 -17 -1 -53
10 -33 10 -47 1 -62 -13 -21 -15 -76 -6 -156 5 -42 14 -61 45 -95 21 -24 39
-49 39 -57 0 -23 42 -79 68 -90 48 -22 118 -6 152 34 8 9 35 27 60 40 52 26
100 76 130 135 30 58 53 70 120 63 65 -6 114 14 164 66 24 25 38 31 73 31 24
0 43 -2 43 -5 0 -3 -7 -22 -15 -42 -47 -112 9 -255 124 -315 l53 -28 883 0
882 0 62 31 c100 50 147 139 139 260 -7 86 -10 93 -363 709 -324 566 -464 798
-520 859 -108 119 -291 120 -383 3 -16 -20 -91 -145 -167 -277 -224 -391 -657
-1127 -678 -1153 -8 -10 -14 -9 -33 3 -26 17 -90 20 -99 5 -3 -6 -32 -28 -64
-50 -55 -37 -62 -39 -127 -37 -83 2 -107 -12 -154 -93 -38 -65 -88 -120 -108
-120 -8 0 -31 -13 -51 -29 -74 -59 -125 -46 -152 38 -7 20 -22 45 -33 56 -12
11 -28 45 -35 75 -12 50 -11 60 7 113 13 35 19 70 15 90 -3 22 2 46 17 75 l22
42 -21 35 c-11 19 -23 58 -27 85 -4 28 -11 53 -15 56 -15 9 -10 47 9 75 9 14
32 48 50 75 31 45 33 54 28 103 -6 69 8 104 67 160 25 24 48 55 52 70 3 14 18
48 31 75 32 62 27 100 -21 146 -31 30 -35 40 -35 83 0 33 -10 72 -31 120 -42
95 -42 130 0 190 27 40 32 55 27 83 -19 110 -20 102 14 134 18 16 38 30 45 30
20 0 42 33 48 75 4 22 12 42 18 44 6 2 30 21 51 42 45 43 44 30 10 184 -13 57
-37 122 -66 179 -25 49 -47 90 -48 91 -2 1 -11 -1 -22 -3z m1738 -966 c18 -18
50 -67 71 -107 64 -121 344 -612 659 -1154 64 -110 116 -211 116 -225 0 -31
-32 -85 -59 -100 -14 -7 -274 -10 -851 -10 -912 0 -873 -3 -905 60 -28 53 -23
65 116 305 42 72 110 189 151 260 196 338 294 507 414 714 71 123 143 239 160
257 43 46 85 46 128 0z"/>
<path d="M7422 3898 c-8 -8 -12 -53 -12 -139 0 -103 3 -129 16 -140 28 -23 34
9 32 150 -3 132 -9 156 -36 129z"/>
<path d="M7212 3788 c-6 -6 -12 -16 -12 -21 0 -14 85 -140 107 -160 39 -34 35
1 -7 76 -59 104 -73 120 -88 105z"/>
<path d="M7603 3716 c-29 -46 -53 -88 -53 -94 0 -20 21 -24 40 -7 30 28 112
164 105 175 -16 26 -43 5 -92 -74z"/>
<path d="M6972 3518 c-15 -20 -54 -100 -61 -127 -4 -13 -15 -25 -24 -27 -31
-4 -43 -22 -61 -86 -10 -35 -22 -73 -27 -86 -13 -34 -11 -59 6 -66 10 -3 15
-19 15 -46 0 -33 4 -42 23 -49 63 -24 65 -23 83 11 9 18 21 36 26 39 5 3 70
-7 146 -23 75 -15 138 -28 140 -28 1 0 2 -18 2 -40 0 -52 30 -72 63 -42 12 10
30 22 39 25 10 3 20 18 24 32 3 14 11 25 18 25 28 1 39 19 38 66 0 27 2 64 5
82 5 28 8 32 19 20 8 -8 14 -42 15 -95 1 -60 5 -80 14 -77 7 3 15 -7 18 -25 5
-24 12 -31 30 -31 13 0 33 -11 44 -24 34 -39 56 -28 68 34 l11 54 133 25 134
24 26 -32 c19 -23 34 -31 57 -31 59 0 66 14 67 136 1 93 -2 116 -20 156 -15
32 -30 49 -46 53 -16 4 -33 26 -56 73 -40 80 -53 92 -103 92 -43 0 -268 -46
-303 -62 -24 -11 -34 -40 -65 -185 -24 -107 -70 -58 -85 89 -10 89 -19 95
-180 129 -154 31 -217 36 -233 17z m205 -73 c157 -37 148 -30 159 -115 6 -49
6 -50 -20 -50 -37 0 -319 70 -348 87 -9 5 16 68 34 91 14 16 67 13 175 -13z
m706 -19 c15 -24 27 -46 27 -49 0 -11 -224 -73 -334 -92 l-39 -6 7 62 c3 35
10 67 15 72 12 12 214 55 261 56 31 1 38 -4 63 -43z m-913 -171 c17 -21 -2
-65 -28 -65 -22 0 -42 19 -42 40 0 37 47 53 70 25z m1000 0 c10 -12 10 -21 2
-40 -13 -27 -23 -30 -53 -15 -18 10 -26 50 -12 63 12 12 50 7 63 -8z m-632
-77 c17 -17 15 -58 -4 -65 -36 -13 -68 33 -44 62 15 18 32 19 48 3z m256 -1
c36 -26 -4 -84 -41 -61 -24 15 -27 38 -8 58 20 19 26 20 49 3z"/>
<path d="M7615 5330 c-4 -6 -10 -8 -15 -5 -4 3 -22 -12 -39 -33 -21 -27 -26
-39 -15 -39 8 0 30 20 50 44 19 24 33 43 30 43 -3 0 -8 -5 -11 -10z m-15 -14
c0 -2 -8 -10 -17 -17 -16 -13 -17 -12 -4 4 13 16 21 21 21 13z"/>
<path d="M7530 5225 c-7 -8 -16 -13 -20 -10 -4 2 -15 -4 -24 -14 -28 -31 10
-22 41 11 15 15 24 28 21 28 -3 0 -11 -7 -18 -15z"/>
<path d="M6577 5217 c-3 -9 1 -18 9 -21 16 -6 18 2 5 22 -7 11 -9 11 -14 -1z"/>
<path d="M6959 5195 c-6 -29 -2 -96 8 -120 11 -28 12 -24 13 48 0 45 -4 77
-10 77 -5 0 -10 -2 -11 -5z"/>
<path d="M7475 5160 c-4 -6 -10 -8 -15 -5 -5 3 -11 1 -14 -4 -12 -19 12 -20
29 -1 10 11 15 20 12 20 -3 0 -9 -5 -12 -10z"/>
<path d="M7435 5110 c-4 -6 -10 -8 -15 -5 -11 7 -54 -53 -55 -79 -2 -16 2 -15
22 10 39 47 65 84 59 84 -3 0 -8 -5 -11 -10z m-39 -48 l-29 -27 23 32 c13 18
26 30 29 28 3 -3 -8 -18 -23 -33z"/>
<path d="M3170 5065 c-53 -54 -132 -87 -210 -88 -54 0 -55 0 -18 -9 69 -18
210 44 259 113 29 41 20 36 -31 -16z"/>
<path d="M6530 5078 c0 -9 5 -20 10 -23 13 -8 13 5 0 25 -8 13 -10 13 -10 -2z"/>
<path d="M6953 5025 c0 -22 2 -30 4 -17 2 12 2 30 0 40 -3 9 -5 -1 -4 -23z"/>
<path d="M6517 5027 c-3 -8 -1 -20 4 -28 5 -9 9 -9 9 -2 0 6 3 18 6 27 3 9 2
16 -4 16 -5 0 -12 -6 -15 -13z"/>
<path d="M3144 5004 c-18 -14 -18 -15 4 -4 12 6 22 13 22 15 0 8 -5 6 -26 -11z"/>
<path d="M7324 4998 l-19 -23 23 19 c12 11 22 21 22 23 0 8 -8 2 -26 -19z"/>
<path d="M7339 4983 c-13 -16 -12 -17 4 -4 9 7 17 15 17 17 0 8 -8 3 -21 -13z"/>
<path d="M3083 4980 c-34 -14 -28 -21 7 -9 17 6 30 13 30 15 0 6 -12 4 -37 -6z"/>
<path d="M6963 4975 c-3 -9 -3 -18 -1 -21 3 -3 8 4 11 16 6 23 -1 27 -10 5z"/>
<path d="M6506 4972 c-2 -4 -1 -14 5 -22 7 -12 9 -10 9 8 0 23 -5 28 -14 14z"/>
<path d="M6941 4954 c0 -11 3 -14 6 -6 3 7 2 16 -1 19 -3 4 -6 -2 -5 -13z"/>
<path d="M7289 4953 c-13 -16 -12 -17 4 -4 16 13 21 21 13 21 -2 0 -10 -8 -17
-17z"/>
<path d="M7295 4930 c-4 -6 -10 -8 -15 -5 -4 3 -14 -3 -21 -13 -13 -15 -12
-16 4 -3 9 7 17 9 17 3 0 -12 -25 -34 -32 -27 -3 3 -13 -4 -22 -14 -14 -16
-15 -19 -3 -17 8 1 22 8 31 16 20 15 60 70 52 70 -3 0 -8 -5 -11 -10z"/>
<path d="M6925 4900 c-5 -19 -8 -43 -7 -53 1 -10 -2 -15 -8 -12 -6 4 -7 -1 -3
-11 4 -11 2 -15 -4 -11 -6 4 -13 0 -17 -8 -8 -22 17 -14 31 10 7 11 10 28 6
39 -4 13 -2 16 8 11 9 -6 11 -4 6 8 -3 9 0 18 9 21 8 3 14 13 13 23 0 16 -1
15 -8 -2 l-8 -20 -5 20 c-3 15 -6 12 -13 -15z"/>
<path d="M6487 4886 c-3 -8 -2 -27 3 -43 8 -26 8 -25 9 15 1 43 -3 52 -12 28z"/>
<path d="M2280 4845 c0 -5 5 -17 10 -25 5 -8 10 -10 10 -5 0 6 -5 17 -10 25
-5 8 -10 11 -10 5z"/>
<path d="M6464 4801 c-7 -36 -7 -48 2 -48 7 0 10 7 6 15 -4 10 -1 13 7 8 9 -6
11 1 5 31 -4 21 -7 39 -8 40 -1 1 -7 -19 -12 -46z"/>
<path d="M7169 4815 c-1 -3 -2 -8 -3 -12 -1 -5 -5 -15 -10 -23 -7 -12 -6 -13
4 -3 13 12 23 43 14 43 -2 0 -5 -2 -5 -5z"/>
<path d="M6843 4716 c-23 -46 -27 -63 -17 -63 14 0 18 10 15 36 -2 7 2 10 8 6
7 -4 8 0 4 11 -5 13 -3 15 7 9 9 -5 11 -4 6 3 -4 6 -2 21 4 33 7 11 10 22 8
25 -2 2 -18 -25 -35 -60z"/>
<path d="M7082 4754 c-12 -8 -19 -20 -16 -26 4 -6 -1 -8 -13 -4 -12 4 -25 1
-33 -9 -7 -8 -9 -15 -5 -15 4 0 1 -8 -6 -17 -8 -9 4 -5 26 10 22 15 40 33 40
40 0 6 7 12 16 11 9 -1 16 5 16 12 0 17 2 17 -25 -2z m-37 -44 c-3 -5 -11 -10
-16 -10 -6 0 -7 5 -4 10 3 6 11 10 16 10 6 0 7 -4 4 -10z"/>
<path d="M6981 4686 c-9 -11 -9 -16 1 -22 7 -4 10 -4 6 1 -4 4 -3 14 3 22 6 7
9 13 6 13 -2 0 -10 -6 -16 -14z"/>
<path d="M6939 4653 c-13 -16 -12 -17 4 -4 16 13 21 21 13 21 -2 0 -10 -8 -17
-17z"/>
<path d="M6774 4588 c-14 -27 -40 -72 -58 -101 -18 -29 -43 -71 -55 -95 -22
-42 -22 -43 -2 -32 11 6 26 20 32 31 8 17 8 20 -1 14 -8 -5 -11 -3 -8 6 3 8
10 14 16 14 13 0 72 83 72 100 0 6 10 26 23 45 33 49 38 67 20 67 -8 0 -25
-22 -39 -49z m22 0 c-19 -27 -21 -19 -4 18 7 14 14 21 16 15 2 -6 -4 -21 -12
-33z m-65 -115 c-17 -26 -31 -44 -31 -39 0 15 51 98 57 92 3 -3 -8 -27 -26
-53z m-60 -96 c-10 -9 -11 -8 -5 6 3 10 9 15 12 12 3 -3 0 -11 -7 -18z"/>
<path d="M6617 4317 c-3 -8 1 -14 8 -14 7 0 11 6 8 14 -3 7 -6 13 -8 13 -2 0
-5 -6 -8 -13z"/>
<path d="M6574 4220 c-27 -72 -36 -162 -22 -222 9 -36 19 -30 13 7 -7 49 -7
45 4 125 4 36 14 77 22 90 7 14 12 31 11 38 -2 7 2 11 9 10 6 -2 14 4 16 12 4
12 3 12 -5 1 -8 -11 -10 -11 -14 0 -3 8 -18 -20 -34 -61z m-17 -132 c-3 -7 -5
-2 -5 12 0 14 2 19 5 13 2 -7 2 -19 0 -25z"/>
<path d="M6573 3915 c0 -27 2 -38 4 -22 2 15 2 37 0 50 -2 12 -4 0 -4 -28z"/>
<path d="M6561 3842 c-13 -25 -14 -42 -2 -42 8 0 23 52 16 58 -2 2 -8 -5 -14
-16z"/>
<path d="M6539 3770 c-5 -50 -4 -70 2 -70 11 0 18 64 8 75 -6 5 -9 3 -10 -5z"/>
<path d="M6480 3545 c0 -5 5 -17 10 -25 5 -8 10 -10 10 -5 0 6 -5 17 -10 25
-5 8 -10 11 -10 5z"/>
<path d="M6496 3455 c-3 -9 -6 -22 -5 -28 0 -7 5 -1 10 12 5 13 8 26 5 28 -2
2 -6 -3 -10 -12z"/>
<path d="M1385 2483 c-150 -20 -297 -108 -377 -225 -111 -165 -123 -372 -31
-549 93 -180 296 -288 518 -276 198 11 345 108 406 265 17 44 23 85 27 185 l4
127 -236 0 -236 0 0 -95 0 -95 135 0 135 0 0 -28 c0 -47 -51 -116 -106 -143
-42 -20 -64 -24 -149 -24 -117 0 -165 17 -238 84 -68 63 -92 125 -92 241 0 82
4 103 26 150 54 115 153 182 279 188 93 5 167 -20 234 -79 l46 -41 68 63 c37
34 68 68 70 75 2 6 -21 31 -50 54 -120 97 -283 143 -433 123z"/>
<path d="M6314 2396 c-44 -20 -70 -77 -55 -126 15 -50 41 -71 95 -77 42 -5 48
-3 82 31 34 34 36 40 31 83 -9 84 -76 122 -153 89z"/>
<path d="M6914 2392 c-60 -38 -69 -125 -18 -173 33 -31 111 -34 143 -5 47 43
48 128 1 171 -29 26 -89 30 -126 7z"/>
<path d="M6580 1930 l0 -470 85 0 85 0 0 470 0 470 -85 0 -85 0 0 -470z"/>
<path d="M7640 2218 c0 -172 -1 -180 -18 -165 -9 8 -42 27 -72 41 -137 64
-293 4 -365 -140 -24 -50 -29 -74 -33 -154 -3 -79 0 -105 17 -151 26 -68 78
-130 139 -167 41 -23 58 -27 127 -27 86 0 128 14 177 60 15 14 30 25 33 25 3
0 5 -18 5 -40 l0 -40 85 0 85 0 0 470 0 470 -90 0 -90 0 0 -182z m-44 -292
c19 -22 37 -58 44 -87 33 -135 -45 -246 -163 -236 -109 9 -178 123 -146 239
24 93 78 131 173 125 54 -3 62 -7 92 -41z"/>
<path d="M9024 2387 c-3 -8 -4 -91 -2 -185 2 -95 0 -172 -3 -172 -3 0 -16 11
-29 25 -31 33 -119 65 -179 65 -110 0 -199 -60 -250 -169 -23 -50 -26 -68 -26
-166 0 -100 3 -115 28 -162 58 -112 127 -162 234 -171 77 -6 138 15 195 66
l38 34 0 -46 0 -46 85 0 85 0 0 470 0 470 -85 0 c-63 0 -87 -4 -91 -13z m-77
-438 c71 -43 100 -197 51 -269 -34 -50 -71 -72 -125 -77 -92 -7 -160 60 -171
168 -14 151 123 251 245 178z"/>
<path d="M2226 2114 c-95 -30 -160 -91 -203 -189 -12 -28 -17 -67 -17 -135 -1
-82 2 -102 25 -150 35 -74 89 -126 168 -164 59 -28 76 -31 156 -31 114 1 185
27 250 91 25 25 45 49 45 52 -1 4 -21 21 -46 37 -25 17 -52 34 -59 39 -10 7
-23 1 -46 -22 -37 -36 -117 -58 -172 -48 -65 12 -129 70 -143 129 l-6 27 247
0 248 0 -6 78 c-10 135 -69 229 -170 272 -69 30 -201 37 -271 14z m219 -146
c25 -20 55 -73 55 -98 0 -6 -57 -10 -160 -10 -175 0 -175 0 -140 58 31 51 75
72 151 72 53 0 72 -4 94 -22z"/>
<path d="M3014 2120 c-109 -23 -212 -110 -249 -211 -14 -38 -20 -77 -19 -131
1 -65 6 -87 32 -141 38 -76 93 -129 171 -165 48 -23 70 -26 156 -27 94 0 105
2 167 33 81 40 139 102 169 181 17 45 20 72 17 141 -3 73 -9 94 -38 148 -40
76 -94 125 -168 152 -62 23 -178 33 -238 20z m161 -159 c74 -34 105 -85 105
-175 0 -144 -136 -229 -261 -163 -115 61 -129 224 -27 311 57 49 116 58 183
27z"/>
<path d="M3853 2101 c-23 -11 -54 -33 -69 -50 -15 -17 -31 -31 -34 -31 -4 0
-5 20 -2 45 l5 45 -97 0 -96 0 0 -325 0 -325 95 0 95 0 0 195 c0 220 6 249 61
282 52 31 83 35 130 17 64 -26 69 -48 69 -289 l0 -205 90 0 90 0 0 190 c0 206
6 235 54 279 19 18 41 26 80 29 48 4 56 1 87 -26 l34 -30 3 -222 3 -221 87 3
87 3 3 215 c3 240 -5 299 -47 358 -43 58 -89 77 -191 77 -75 0 -91 -3 -132
-27 -25 -16 -58 -42 -72 -60 -14 -18 -26 -30 -28 -28 -47 65 -64 81 -101 99
-56 27 -146 28 -204 2z"/>
<path d="M4965 2107 c-68 -23 -101 -44 -149 -98 -146 -162 -94 -430 102 -526
52 -26 67 -28 167 -28 126 0 172 15 245 81 66 60 93 122 98 230 4 83 2 97 -23
153 -32 71 -103 142 -173 174 -58 26 -206 34 -267 14z m162 -137 c38 0 108
-74 123 -130 25 -93 -18 -192 -97 -226 -146 -63 -281 81 -232 247 21 68 111
129 167 113 8 -2 25 -4 39 -4z"/>
<path d="M8080 2106 c-25 -7 -56 -18 -68 -25 -31 -16 -102 -81 -102 -92 0 -14
71 -89 85 -89 7 0 18 7 26 16 17 20 76 50 115 57 72 14 154 -33 154 -87 0 -22
-5 -23 -87 -29 -203 -15 -293 -70 -309 -189 -8 -54 8 -107 44 -150 76 -90 250
-91 345 -1 l27 27 0 -42 0 -42 76 0 76 0 -4 243 c-3 226 -4 245 -25 283 -28
53 -82 100 -130 114 -61 18 -173 21 -223 6z m210 -395 c0 -40 -5 -54 -28 -79
-40 -43 -100 -59 -149 -41 -51 20 -71 56 -54 97 18 42 56 54 219 71 8 1 12
-15 12 -48z"/>
<path d="M5449 2087 c10 -26 205 -479 245 -569 l26 -58 90 0 90 0 19 38 c25
51 261 596 261 605 0 4 -44 7 -97 7 l-98 0 -55 -143 c-30 -78 -69 -180 -86
-227 -32 -84 -33 -85 -44 -55 -6 17 -45 119 -87 228 l-76 197 -98 0 -99 0 9
-23z"/>
<path d="M6260 1785 l0 -325 95 0 95 0 0 325 -1 325 -95 0 -94 0 0 -325z"/>
<path d="M6880 1785 l0 -325 90 0 90 0 0 325 0 325 -90 0 -90 0 0 -325z"/>
</g>
</svg>
